<mxfile host="app.diagrams.net" modified="2023-11-11T17:50:27.430Z" agent="Mozilla/5.0 (Windows NT 10.0; Win64; x64) AppleWebKit/537.36 (KHTML, like Gecko) Chrome/119.0.0.0 Safari/537.36" etag="D6WNMpoGtVrjXT8tBUcs" version="22.1.0" type="google">
  <diagram name="Página-1" id="H7m5xRdSHbNrwWRPgYEu">
    <mxGraphModel grid="1" page="0" gridSize="10" guides="1" tooltips="1" connect="1" arrows="1" fold="1" pageScale="1" pageWidth="827" pageHeight="1169" math="0" shadow="0">
      <root>
        <mxCell id="0" />
        <mxCell id="1" parent="0" />
        <mxCell id="-gUw1Rj2WfBpZgPW_4-_-19" value="" style="rounded=1;whiteSpace=wrap;html=1;fillColor=#f8cecc;strokeColor=#b85450;" vertex="1" parent="1">
          <mxGeometry x="20" y="20" width="790" height="60" as="geometry" />
        </mxCell>
        <mxCell id="-gUw1Rj2WfBpZgPW_4-_-1" value="" style="strokeWidth=1;shadow=0;dashed=0;align=center;html=1;shape=mxgraph.mockup.text.rrect;rSize=0;strokeColor=#666666;" vertex="1" parent="1">
          <mxGeometry x="290" y="35" width="500" height="25" as="geometry" />
        </mxCell>
        <mxCell id="-gUw1Rj2WfBpZgPW_4-_-2" value="Button 2" style="strokeColor=inherit;fillColor=inherit;gradientColor=inherit;strokeWidth=1;shadow=0;dashed=0;align=center;html=1;shape=mxgraph.mockup.text.rrect;rSize=0;fontSize=17;fontColor=#0000ff;whiteSpace=wrap;" vertex="1" parent="-gUw1Rj2WfBpZgPW_4-_-1">
          <mxGeometry x="187.5" width="125" height="25" as="geometry" />
        </mxCell>
        <mxCell id="-gUw1Rj2WfBpZgPW_4-_-3" value="Button 3" style="strokeColor=inherit;fillColor=inherit;gradientColor=inherit;strokeWidth=1;shadow=0;dashed=0;align=center;html=1;shape=mxgraph.mockup.text.rrect;rSize=0;fontSize=17;fontColor=#0000ff;whiteSpace=wrap;" vertex="1" parent="-gUw1Rj2WfBpZgPW_4-_-1">
          <mxGeometry x="375" width="125" height="25" as="geometry" />
        </mxCell>
        <mxCell id="-gUw1Rj2WfBpZgPW_4-_-5" value="Button 1" style="strokeWidth=1;shadow=0;dashed=0;align=center;html=1;shape=mxgraph.mockup.text.rrect;rSize=0;fontSize=17;fontColor=#ffffff;fillColor=#008cff;strokeColor=#008cff;whiteSpace=wrap;" vertex="1" parent="-gUw1Rj2WfBpZgPW_4-_-1">
          <mxGeometry width="125" height="25" as="geometry" />
        </mxCell>
        <mxCell id="-gUw1Rj2WfBpZgPW_4-_-7" value="" style="verticalLabelPosition=bottom;shadow=0;dashed=0;align=center;html=1;verticalAlign=top;strokeWidth=1;shape=mxgraph.mockup.graphics.simpleIcon;strokeColor=#999999;" vertex="1" parent="1">
          <mxGeometry x="20" y="20" width="160" height="60" as="geometry" />
        </mxCell>
        <mxCell id="-gUw1Rj2WfBpZgPW_4-_-8" value="Link" style="shape=rectangle;strokeColor=none;fillColor=none;linkText=;fontSize=17;fontColor=#0000ff;fontStyle=4;html=1;align=center;" vertex="1" parent="1">
          <mxGeometry x="650" y="1100" width="150" height="30" as="geometry" />
        </mxCell>
        <mxCell id="-gUw1Rj2WfBpZgPW_4-_-9" value="Link" style="shape=rectangle;strokeColor=none;fillColor=none;linkText=;fontSize=17;fontColor=#0000ff;fontStyle=4;html=1;align=center;" vertex="1" parent="1">
          <mxGeometry x="420" y="1100" width="150" height="30" as="geometry" />
        </mxCell>
        <mxCell id="-gUw1Rj2WfBpZgPW_4-_-11" value="" style="rounded=1;whiteSpace=wrap;html=1;fillColor=#f8cecc;strokeColor=#b85450;" vertex="1" parent="1">
          <mxGeometry x="10" y="1090" width="800" height="60" as="geometry" />
        </mxCell>
        <mxCell id="-gUw1Rj2WfBpZgPW_4-_-10" value="" style="strokeColor=#999999;verticalLabelPosition=bottom;shadow=0;dashed=0;verticalAlign=top;strokeWidth=2;html=1;shape=mxgraph.mockup.misc.copyrightIcon;" vertex="1" parent="1">
          <mxGeometry x="160" y="1120" width="10" height="10" as="geometry" />
        </mxCell>
        <mxCell id="-gUw1Rj2WfBpZgPW_4-_-12" value="Contact us" style="shape=rectangle;strokeColor=none;fillColor=none;linkText=;fontSize=17;fontColor=#0000ff;fontStyle=4;html=1;align=center;" vertex="1" parent="1">
          <mxGeometry x="190" y="1110" width="150" height="30" as="geometry" />
        </mxCell>
        <mxCell id="-gUw1Rj2WfBpZgPW_4-_-14" value="Site map" style="shape=rectangle;strokeColor=none;fillColor=none;linkText=;fontSize=17;fontColor=#0000ff;fontStyle=4;html=1;align=center;" vertex="1" parent="1">
          <mxGeometry x="330" y="1110" width="150" height="30" as="geometry" />
        </mxCell>
        <mxCell id="-gUw1Rj2WfBpZgPW_4-_-17" value="Patricia Gargano 2023" style="text;html=1;strokeColor=none;fillColor=none;align=center;verticalAlign=middle;whiteSpace=wrap;rounded=0;" vertex="1" parent="1">
          <mxGeometry x="30" y="1110" width="100" height="30" as="geometry" />
        </mxCell>
        <mxCell id="-gUw1Rj2WfBpZgPW_4-_-20" value="Tiitle" style="text;html=1;strokeColor=#6c8ebf;fillColor=#dae8fc;align=center;verticalAlign=middle;whiteSpace=wrap;rounded=0;" vertex="1" parent="1">
          <mxGeometry x="335" y="240" width="160" height="30" as="geometry" />
        </mxCell>
        <mxCell id="-gUw1Rj2WfBpZgPW_4-_-22" value="&lt;h1 style=&quot;text-align: justify; font-size: 17px;&quot;&gt;&lt;font style=&quot;font-size: 17px;&quot;&gt;Lorem ipsum dolor sit amet, consectetur adipiscing elit, sed do eiusmod tempor incididunt ut labore et dolore magna aliqua. Ut enim ad minim veniam, quis nostrud exercitation ullamco laboris nisi ut aliquip ex ea commodo consequat. Duis aute irure dolor in reprehenderit in voluptate velit esse cillum dolore eu fugiat nulla pariatur. Excepteur sint&amp;nbsp; sunt in culpa qui officia deserunt mollit anim id est laborum.&lt;/font&gt;&lt;br style=&quot;font-size: 17px;&quot;&gt;&lt;/h1&gt;" style="text;html=1;strokeColor=none;fillColor=none;spacing=5;spacingTop=-20;whiteSpace=wrap;overflow=hidden;rounded=0;fontSize=17;" vertex="1" parent="1">
          <mxGeometry x="50" y="290" width="740" height="110" as="geometry" />
        </mxCell>
        <mxCell id="-gUw1Rj2WfBpZgPW_4-_-23" value="Tiitle" style="text;html=1;strokeColor=#6c8ebf;fillColor=#dae8fc;align=center;verticalAlign=middle;whiteSpace=wrap;rounded=0;" vertex="1" parent="1">
          <mxGeometry x="340" y="420" width="160" height="30" as="geometry" />
        </mxCell>
        <mxCell id="-gUw1Rj2WfBpZgPW_4-_-24" value="" style="verticalLabelPosition=bottom;shadow=0;dashed=0;align=center;html=1;verticalAlign=top;strokeWidth=1;shape=mxgraph.mockup.graphics.simpleIcon;strokeColor=#999999;" vertex="1" parent="1">
          <mxGeometry x="50" y="480" width="380" height="230" as="geometry" />
        </mxCell>
        <mxCell id="-gUw1Rj2WfBpZgPW_4-_-25" value="&lt;br&gt;&lt;span style=&quot;font-family: &amp;quot;Mercury SSm A&amp;quot;, &amp;quot;Mercury SSm B&amp;quot;, Georgia, Times, &amp;quot;Times New Roman&amp;quot;, &amp;quot;Microsoft YaHei New&amp;quot;, &amp;quot;Microsoft Yahei&amp;quot;, 微软雅黑, 宋体, SimSun, STXihei, 华文细黑, serif; font-size: 16px; font-style: normal; font-variant-ligatures: normal; font-variant-caps: normal; letter-spacing: normal; orphans: 2; text-indent: 0px; text-transform: none; widows: 2; word-spacing: 0px; -webkit-text-stroke-width: 0px; text-decoration-thickness: initial; text-decoration-style: initial; text-decoration-color: initial; float: none; display: inline !important;&quot;&gt;Lorem ipsum dolor sit amet, consectetur adipiscing elit, sed do eiusmod tempor incididunt ut labore et dolore magna aliqua. Ut enim ad minim veniam, quis nostrud exercitation ullamco laboris nisi ut aliquip ex ea commodo consequat. Duis aute irure dolor in reprehenderit in voluptate velit esse cillum dolore eu fugiat nulla pariatur. Excepteur sint occaecat cupidatat non proident.&lt;/span&gt;&lt;br&gt;" style="text;html=1;strokeColor=none;fillColor=none;spacing=5;spacingTop=-20;whiteSpace=wrap;overflow=hidden;rounded=0;fontSize=16;align=left;labelBackgroundColor=none;fontStyle=1;fontColor=#000000;" vertex="1" parent="1">
          <mxGeometry x="447.5" y="480" width="342.5" height="240" as="geometry" />
        </mxCell>
        <mxCell id="-gUw1Rj2WfBpZgPW_4-_-26" value="" style="verticalLabelPosition=bottom;shadow=0;dashed=0;align=center;html=1;verticalAlign=top;strokeWidth=1;shape=mxgraph.mockup.graphics.simpleIcon;strokeColor=#999999;" vertex="1" parent="1">
          <mxGeometry x="455" y="800" width="335" height="240" as="geometry" />
        </mxCell>
        <mxCell id="-gUw1Rj2WfBpZgPW_4-_-27" value="&lt;br style=&quot;font-size: 16px;&quot;&gt;&lt;span style=&quot;font-family: &amp;quot;Mercury SSm A&amp;quot;, &amp;quot;Mercury SSm B&amp;quot;, Georgia, Times, &amp;quot;Times New Roman&amp;quot;, &amp;quot;Microsoft YaHei New&amp;quot;, &amp;quot;Microsoft Yahei&amp;quot;, 微软雅黑, 宋体, SimSun, STXihei, 华文细黑, serif; font-size: 16px; font-style: normal; font-variant-ligatures: normal; font-variant-caps: normal; letter-spacing: normal; orphans: 2; text-indent: 0px; text-transform: none; widows: 2; word-spacing: 0px; -webkit-text-stroke-width: 0px; text-decoration-thickness: initial; text-decoration-style: initial; text-decoration-color: initial; float: none; display: inline !important;&quot;&gt;Lorem ipsum dolor sit amet, consectetur adipiscing elit, sed do eiusmod tempor incididunt ut labore et dolore magna aliqua. Ut enim ad minim veniam, quis nostrud exercitation ullamco laboris nisi ut aliquip ex ea commodo consequat. Duis aute irure dolor in reprehenderit in voluptate velit esse cillum dolore eu fugiat nulla pariatur. Excepteur sint occaecat cupidatat non proident, sunt in culpa qui officia deserunt mollit anim.&lt;/span&gt;&lt;br style=&quot;font-size: 16px;&quot;&gt;" style="text;html=1;strokeColor=none;fillColor=none;spacing=5;spacingTop=-20;whiteSpace=wrap;overflow=hidden;rounded=0;fontSize=16;align=left;labelBackgroundColor=none;fontColor=#000000;fontStyle=1" vertex="1" parent="1">
          <mxGeometry x="50" y="790" width="360" height="250" as="geometry" />
        </mxCell>
        <mxCell id="-gUw1Rj2WfBpZgPW_4-_-28" value="Tiitle" style="text;html=1;strokeColor=#6c8ebf;fillColor=#dae8fc;align=center;verticalAlign=middle;whiteSpace=wrap;rounded=0;" vertex="1" parent="1">
          <mxGeometry x="340" y="740" width="160" height="30" as="geometry" />
        </mxCell>
        <mxCell id="QX5ddWsteTQpjyZFC8th-1" value="" style="verticalLabelPosition=bottom;shadow=0;dashed=0;align=center;html=1;verticalAlign=top;strokeWidth=1;shape=mxgraph.mockup.graphics.simpleIcon;strokeColor=#999999;" vertex="1" parent="1">
          <mxGeometry x="530" y="1095" width="50" height="50" as="geometry" />
        </mxCell>
        <mxCell id="QX5ddWsteTQpjyZFC8th-2" value="" style="verticalLabelPosition=bottom;shadow=0;dashed=0;align=center;html=1;verticalAlign=top;strokeWidth=1;shape=mxgraph.mockup.graphics.simpleIcon;strokeColor=#999999;" vertex="1" parent="1">
          <mxGeometry x="630" y="1095" width="50" height="50" as="geometry" />
        </mxCell>
        <mxCell id="QX5ddWsteTQpjyZFC8th-3" value="" style="verticalLabelPosition=bottom;shadow=0;dashed=0;align=center;html=1;verticalAlign=top;strokeWidth=1;shape=mxgraph.mockup.graphics.simpleIcon;strokeColor=#999999;" vertex="1" parent="1">
          <mxGeometry x="730" y="1095" width="50" height="50" as="geometry" />
        </mxCell>
        <mxCell id="QX5ddWsteTQpjyZFC8th-4" value="" style="verticalLabelPosition=bottom;shadow=0;dashed=0;align=center;html=1;verticalAlign=top;strokeWidth=1;shape=mxgraph.mockup.graphics.simpleIcon;strokeColor=#999999;" vertex="1" parent="1">
          <mxGeometry x="20" y="90" width="790" height="130" as="geometry" />
        </mxCell>
      </root>
    </mxGraphModel>
  </diagram>
</mxfile>
